<svg width="14" height="26" viewBox="0 0 14 26" fill="none" xmlns="http://www.w3.org/2000/svg">
<path d="M0.535359 0.5723C0.192569 0.938854 0 1.43594 0 1.95425C0 2.47256 0.192569 2.96964 0.535359 3.3362L9.5864 13.0118L0.535359 22.6874C0.202284 23.0561 0.0179809 23.5498 0.022147 24.0623C0.0263131 24.5748 0.218614 25.0651 0.557632 25.4275C0.89665 25.7899 1.35526 25.9955 1.83468 25.9999C2.31411 26.0044 2.77599 25.8074 3.12085 25.4513L13.4646 14.3937C13.8074 14.0272 14 13.5301 14 13.0118C14 12.4935 13.8074 11.9964 13.4646 11.6299L3.12085 0.5723C2.77796 0.205857 2.31295 0 1.8281 0C1.34325 0 0.878252 0.205857 0.535359 0.5723V0.5723Z" fill="#888888"/>
</svg>
