<svg width="58" height="58" viewBox="0 0 58 58" fill="none" xmlns="http://www.w3.org/2000/svg">
<circle cx="29" cy="29" r="29" fill="#DAD9D9"/>
<path d="M34.5411 42.3617C34.8349 41.9528 35 41.3984 35 40.8203C35 40.2421 34.8349 39.6877 34.5411 39.2789L26.7831 28.4868L34.5411 17.6948C34.8266 17.2836 34.9846 16.7329 34.981 16.1613C34.9774 15.5896 34.8126 15.0428 34.522 14.6386C34.2314 14.2343 33.8383 14.005 33.4274 14.0001C33.0165 13.9951 32.6206 14.2149 32.325 14.612L23.4589 26.9454C23.1651 27.3543 23 27.9087 23 28.4868C23 29.0649 23.1651 29.6194 23.4589 30.0282L32.325 42.3617C32.6189 42.7704 33.0175 43 33.4331 43C33.8486 43 34.2472 42.7704 34.5411 42.3617V42.3617Z" fill="#CF2B2B"/>
</svg>
